<?xml version="1.0" standalone="no"?>
<!DOCTYPE svg PUBLIC "-//W3C//DTD SVG 20010904//EN"
 "http://www.w3.org/TR/2001/REC-SVG-20010904/DTD/svg10.dtd">
<svg version="1.0" xmlns="http://www.w3.org/2000/svg"
 width="65.000000pt" height="73.000000pt" viewBox="0 0 65.000000 73.000000"
 preserveAspectRatio="xMidYMid meet">

<g transform="translate(0.000000,73.000000) scale(0.100000,-0.100000)"
fill="#000000" stroke="none">
<path d="M234 582 c-24 -38 -22 -101 2 -81 15 12 28 67 22 95 -3 15 -7 12 -24
-14z"/>
<path d="M298 538 c2 -40 6 -75 8 -77 7 -8 16 8 24 41 l8 33 1 -37 c1 -42 18
-51 26 -15 25 106 25 106 22 40 -3 -60 -2 -63 20 -63 25 0 33 34 11 44 -10 5
-10 7 0 12 6 3 12 14 12 24 0 10 -6 21 -12 23 -8 3 -6 6 5 6 10 1 17 9 17 21
0 16 -7 20 -34 20 -31 0 -35 -3 -44 -37 l-10 -38 -1 38 c-1 46 -16 48 -27 5
l-8 -33 -3 33 c-8 63 -20 31 -15 -40z"/>
<path d="M158 468 c-19 -28 -24 -78 -10 -78 15 0 34 46 30 76 l-3 28 -17 -26z"/>
<path d="M236 417 c-15 -23 -20 -54 -25 -160 -4 -79 -12 -142 -20 -157 -13
-24 -12 -23 18 5 44 41 53 81 49 220 l-3 120 -19 -28z"/>
<path d="M294 399 c3 -17 6 -52 6 -76 0 -51 21 -56 31 -7 l7 29 1 -32 c1 -38
18 -44 26 -10 28 122 28 127 16 127 -4 0 -13 -19 -18 -42 l-11 -43 -1 43 c-1
40 -21 62 -21 23 0 -11 -4 -23 -10 -26 -6 -4 -10 5 -10 19 0 14 -5 26 -11 26
-8 0 -9 -11 -5 -31z"/>
<path d="M395 360 c-17 -67 -14 -101 5 -70 7 11 11 11 24 1 14 -12 16 -8 16
32 0 55 -10 107 -20 107 -4 0 -16 -32 -25 -70z"/>
<path d="M456 393 c-9 -57 -7 -113 4 -113 6 0 10 12 11 28 1 25 1 26 7 4 14
-48 27 -26 29 48 3 70 2 73 -12 50 -14 -25 -14 -25 -15 -2 0 36 -17 25 -24
-15z"/>
<path d="M524 399 c3 -17 6 -51 6 -75 0 -24 5 -44 10 -44 6 0 10 25 10 55 0
30 5 55 10 55 6 0 10 9 10 20 0 15 -7 20 -26 20 -24 0 -26 -3 -20 -31z"/>
<path d="M77 346 c-10 -15 -17 -35 -15 -44 2 -12 7 -10 21 12 10 15 17 35 15
44 -2 12 -7 10 -21 -12z"/>
<path d="M158 315 c-11 -15 -18 -41 -18 -69 0 -25 -5 -68 -11 -97 -11 -53 -5
-68 28 -69 15 0 25 84 21 181 -3 76 -3 76 -20 54z"/>
<path d="M79 229 c-15 -23 -16 -28 -1 -60 l16 -34 4 27 c2 15 2 42 0 60 l-3
32 -16 -25z"/>
<path d="M460 231 c-14 -28 -12 -53 7 -81 15 -21 15 -23 0 -17 -10 4 -17 0
-20 -11 -3 -9 -5 -1 -6 19 -1 50 -12 99 -21 99 -7 0 -40 -115 -40 -140 0 -5 5
-10 10 -10 6 0 10 7 10 15 0 18 17 20 22 3 6 -16 48 -21 64 -7 19 15 18 63 -1
79 -22 18 -18 30 8 26 20 -3 22 -9 21 -60 -1 -57 9 -74 20 -33 3 12 6 36 6 54
0 17 5 35 11 38 7 5 10 -12 8 -51 -3 -54 -1 -59 19 -62 16 -3 22 2 22 16 0 11
-6 23 -12 26 -10 5 -10 7 0 12 14 7 16 44 2 44 -5 0 -10 5 -10 10 0 6 7 10 15
10 8 0 15 8 15 18 0 14 -8 16 -50 14 -29 -2 -50 -9 -50 -15 0 -7 -5 -4 -11 6
-13 22 -26 22 -39 -2z m-43 -73 c-3 -8 -6 -5 -6 6 -1 11 2 17 5 13 3 -3 4 -12
1 -19z"/>
<path d="M298 168 c2 -40 6 -75 8 -77 7 -8 16 8 24 41 l8 33 1 -37 c1 -42 18
-51 26 -15 28 122 28 127 16 127 -4 0 -13 -19 -18 -42 l-11 -43 -1 43 c-1 52
-14 54 -28 5 l-10 -38 -2 38 c0 20 -5 37 -10 37 -4 0 -6 -33 -3 -72z"/>
</g>
</svg>
